<?xml version="1.0" standalone="no"?>
<!DOCTYPE svg PUBLIC "-//W3C//DTD SVG 20010904//EN"
 "http://www.w3.org/TR/2001/REC-SVG-20010904/DTD/svg10.dtd">
<svg version="1.0" xmlns="http://www.w3.org/2000/svg"
 width="500.000000pt" height="157.000000pt" viewBox="0 0 500.000000 157.000000"
 preserveAspectRatio="xMidYMid meet">

<g transform="translate(0.000000,157.000000) scale(0.100000,-0.100000)"
fill="#000000" stroke="none">
<path d="M643 1296 c-134 -42 -205 -143 -206 -291 -2 -132 52 -219 165 -271
142 -64 313 -19 383 101 14 23 25 45 25 48 0 4 -29 7 -65 7 -57 0 -66 -3 -80
-24 -33 -50 -123 -71 -198 -47 -101 34 -147 178 -92 287 30 58 60 82 117 92
65 12 122 -3 160 -44 30 -32 37 -34 95 -34 35 0 63 4 63 8 0 4 -13 28 -28 53
-67 104 -213 154 -339 115z"/>
<path d="M2240 1235 c0 -54 0 -55 -30 -55 -29 0 -30 -2 -30 -44 0 -40 2 -44
30 -49 l30 -6 0 -141 c0 -161 10 -192 65 -216 19 -8 62 -14 95 -14 l60 0 0 45
c0 44 0 45 -34 45 -19 0 -43 8 -55 18 -20 16 -22 24 -19 142 l3 125 53 3 52 3
0 45 0 44 -55 0 -55 0 0 55 0 55 -55 0 -55 0 0 -55z"/>
<path d="M3078 1172 c-104 -37 -183 -123 -195 -212 -8 -56 14 -52 28 5 22 87
93 157 187 186 40 12 51 22 34 33 -4 2 -28 -3 -54 -12z"/>
<path d="M3196 1182 c-13 -13 -4 -20 38 -31 85 -21 166 -102 189 -189 12 -46
34 -52 29 -7 -7 65 -69 151 -136 189 -45 26 -111 47 -120 38z"/>
<path d="M1212 1159 c-82 -41 -122 -115 -122 -225 0 -179 186 -287 350 -204
36 18 100 90 100 112 0 4 -28 8 -63 8 -51 0 -64 -4 -74 -19 -17 -27 -74 -42
-118 -30 -40 11 -75 51 -75 85 l0 24 170 0 c190 0 175 -6 170 75 -3 46 -30
104 -63 136 -63 61 -193 78 -275 38z m178 -91 c38 -26 57 -73 33 -82 -8 -3
-57 -6 -109 -6 -106 0 -118 8 -88 59 32 55 106 68 164 29z"/>
<path d="M1625 1167 c-3 -6 -4 -163 -3 -347 l3 -335 58 -3 57 -3 0 146 0 147
30 -26 c54 -45 139 -58 203 -31 108 45 163 186 126 319 -14 51 -79 119 -128
136 -59 19 -142 9 -185 -23 -19 -15 -37 -27 -40 -27 -3 0 -6 14 -6 30 0 30 -1
30 -55 30 -36 0 -57 -5 -60 -13z m305 -102 c84 -44 82 -193 -3 -245 -84 -52
-187 13 -187 118 0 112 96 176 190 127z"/>
<path d="M2540 945 l0 -235 55 0 55 0 0 130 c0 184 19 220 116 220 l34 0 0 60
c0 60 0 60 -29 60 -18 0 -47 -13 -75 -35 l-46 -35 0 35 0 35 -55 0 -55 0 0
-235z"/>
<path d="M3530 945 l0 -235 55 0 55 0 0 129 c0 152 5 183 35 215 46 50 147 39
174 -20 7 -15 11 -84 11 -174 l0 -150 60 0 60 0 0 140 c0 161 -12 229 -47 271
-37 43 -74 59 -141 59 -47 0 -67 -5 -96 -25 -20 -14 -41 -25 -46 -25 -6 0 -10
11 -10 25 0 24 -3 25 -55 25 l-55 0 0 -235z"/>
<path d="M3125 1101 c-200 -49 -229 -303 -45 -396 70 -36 176 -17 233 41 46
46 61 83 61 149 0 66 -15 103 -61 149 -46 47 -127 71 -188 57z m140 -52 c69
-48 101 -136 76 -211 -16 -49 -76 -106 -125 -119 -136 -37 -262 87 -226 223
13 48 83 123 122 131 45 10 121 -2 153 -24z"/>
<path d="M3104 992 c-97 -61 -53 -212 62 -212 39 0 51 5 80 34 29 29 34 41 34
80 0 36 -6 52 -28 77 -36 40 -102 50 -148 21z m127 -38 c77 -82 -47 -199 -126
-119 -44 43 -30 116 27 139 39 17 71 10 99 -20z"/>
<path d="M2880 841 c0 -40 44 -120 87 -158 59 -53 161 -93 170 -67 2 5 -22 18
-53 28 -78 25 -145 92 -170 170 -19 61 -34 73 -34 27z"/>
<path d="M3423 828 c-23 -87 -104 -168 -189 -189 -49 -13 -55 -36 -8 -31 42 5
121 51 155 89 36 42 67 101 71 138 5 45 -17 39 -29 -7z"/>
</g>
</svg>
